<svg width="107" height="31" viewBox="0 0 107 31" fill="none" xmlns="http://www.w3.org/2000/svg">
<circle cx="15.5" cy="15.5" r="15.5" fill="#725CFF"/>
<path d="M15.3123 23.7007C10.8839 23.4964 7.45956 19.7409 7.66383 15.3125C7.86811 10.8841 11.6236 7.45972 16.0521 7.66399L23.8798 8.20769L23.7006 16.0522C23.4963 20.4806 19.7408 23.905 15.3123 23.7007Z" fill="white"/>
<path d="M15.7109 19.5335C13.698 19.4406 12.1415 17.7336 12.2343 15.7206C12.3272 13.7077 14.0343 12.1512 16.0472 12.244L19.6052 12.4912L19.5238 16.0569C19.4309 18.0698 17.7239 19.6263 15.7109 19.5335Z" fill="#725CFF"/>
<path d="M48.1239 10.0907L44.2166 22H41.0691L46.4071 7.6338H48.41L48.1239 10.0907ZM51.3701 22L47.453 10.0907L47.1372 7.6338H49.1599L54.5275 22H51.3701ZM51.1925 16.6521V18.9709H43.6049V16.6521H51.1925ZM61.9869 19.6714V6.84444H64.8483V22H62.273L61.9869 19.6714ZM55.2379 16.7903V16.5831C55.2379 15.7674 55.33 15.0274 55.5142 14.363C55.6984 13.6921 55.9681 13.1165 56.3233 12.6363C56.6785 12.1561 57.1159 11.7845 57.6356 11.5214C58.1552 11.2582 58.7473 11.1267 59.4116 11.1267C60.0365 11.1267 60.5825 11.2582 61.0495 11.5214C61.5231 11.7845 61.9244 12.1594 62.2533 12.6462C62.5888 13.1264 62.8585 13.6954 63.0624 14.3532C63.2663 15.0044 63.4143 15.7181 63.5064 16.4943V16.9481C63.4143 17.6915 63.2663 18.3821 63.0624 19.0202C62.8585 19.6583 62.5888 20.2174 62.2533 20.6976C61.9244 21.1712 61.5231 21.5395 61.0495 21.8027C60.5759 22.0658 60.0234 22.1973 59.3919 22.1973C58.7275 22.1973 58.1355 22.0625 57.6159 21.7928C57.1028 21.5231 56.6686 21.1449 56.3134 20.6581C55.9648 20.1713 55.6984 19.5991 55.5142 18.9413C55.33 18.2835 55.2379 17.5665 55.2379 16.7903ZM58.0796 16.5831V16.7903C58.0796 17.231 58.1125 17.6421 58.1783 18.0236C58.2506 18.4052 58.3657 18.7439 58.5236 19.0399C58.6881 19.3294 58.8986 19.5563 59.1551 19.7207C59.4182 19.8786 59.7372 19.9576 60.1122 19.9576C60.599 19.9576 61.0002 19.849 61.3159 19.6319C61.6317 19.4083 61.8718 19.1024 62.0362 18.7143C62.2073 18.3262 62.3059 17.8789 62.3322 17.3724V16.0799C62.3125 15.6655 62.2533 15.2938 62.1546 14.9649C62.0625 14.6294 61.9244 14.3433 61.7402 14.1065C61.5626 13.8697 61.339 13.6855 61.0693 13.5539C60.8062 13.4224 60.4937 13.3566 60.1319 13.3566C59.7636 13.3566 59.4478 13.4421 59.1847 13.6131C58.9216 13.7776 58.7078 14.0045 58.5433 14.294C58.3855 14.5834 58.2671 14.9254 58.1881 15.3201C58.1158 15.7082 58.0796 16.1292 58.0796 16.5831ZM73.3832 19.4445V11.324H76.2248V22H73.5509L73.3832 19.4445ZM73.6989 17.254L74.5376 17.2343C74.5376 17.9447 74.4554 18.6058 74.2909 19.2175C74.1265 19.8227 73.8798 20.3489 73.5509 20.7962C73.222 21.237 72.8076 21.5823 72.3077 21.8323C71.8077 22.0756 71.219 22.1973 70.5415 22.1973C70.0218 22.1973 69.5416 22.125 69.1009 21.9803C68.6668 21.829 68.2918 21.5955 67.9761 21.2797C67.6669 20.9574 67.4236 20.5463 67.2459 20.0464C67.0749 19.5399 66.9894 18.9314 66.9894 18.221V11.324H69.8311V18.2407C69.8311 18.5565 69.8673 18.8229 69.9396 19.0399C70.0185 19.257 70.1271 19.4346 70.2652 19.5727C70.4034 19.7109 70.5645 19.8095 70.7487 19.8687C70.9395 19.928 71.15 19.9576 71.3802 19.9576C71.9656 19.9576 72.4261 19.8391 72.7615 19.6023C73.1036 19.3655 73.3437 19.0432 73.4818 18.6354C73.6265 18.221 73.6989 17.7605 73.6989 17.254ZM81.2372 13.6526V22H78.3955V11.324H81.0695L81.2372 13.6526ZM84.4538 11.2549L84.4045 13.8894C84.2664 13.8697 84.0986 13.8532 83.9013 13.8401C83.7105 13.8203 83.5362 13.8105 83.3783 13.8105C82.9771 13.8105 82.6284 13.8631 82.3324 13.9683C82.043 14.067 81.7996 14.215 81.6023 14.4124C81.4115 14.6097 81.2668 14.8498 81.1681 15.1326C81.0761 15.4155 81.0234 15.7378 81.0103 16.0996L80.438 15.922C80.438 15.2313 80.5071 14.5965 80.6452 14.0177C80.7833 13.4322 80.984 12.9225 81.2471 12.4883C81.5168 12.0542 81.8457 11.7187 82.2338 11.4819C82.6219 11.2451 83.0659 11.1267 83.5658 11.1267C83.7237 11.1267 83.8848 11.1398 84.0493 11.1661C84.2137 11.1859 84.3486 11.2155 84.4538 11.2549ZM90.5121 22.1973C89.6833 22.1973 88.94 22.0658 88.2822 21.8027C87.6244 21.533 87.0653 21.1613 86.6048 20.6877C86.1509 20.2141 85.8023 19.6648 85.5589 19.0399C85.3155 18.4084 85.1938 17.7375 85.1938 17.0271V16.6324C85.1938 15.8233 85.309 15.0833 85.5392 14.4124C85.7694 13.7414 86.0983 13.1593 86.5259 12.6659C86.96 12.1726 87.4862 11.7943 88.1046 11.5312C88.7229 11.2615 89.4202 11.1267 90.1964 11.1267C90.9528 11.1267 91.6238 11.2517 92.2092 11.5016C92.7946 11.7516 93.2847 12.1068 93.6794 12.5672C94.0806 13.0277 94.3832 13.5802 94.5871 14.2249C94.791 14.8629 94.893 15.5734 94.893 16.3561V17.5402H86.4075V15.6457H92.1007V15.4286C92.1007 15.034 92.0283 14.682 91.8836 14.3729C91.7455 14.0571 91.535 13.8072 91.2521 13.623C90.9693 13.4388 90.6075 13.3467 90.1668 13.3467C89.7918 13.3467 89.4695 13.429 89.1998 13.5934C88.9301 13.7579 88.7097 13.9881 88.5387 14.2841C88.3743 14.5801 88.2493 14.9287 88.1638 15.33C88.0848 15.7247 88.0454 16.1588 88.0454 16.6324V17.0271C88.0454 17.4546 88.1046 17.8493 88.223 18.2111C88.348 18.5729 88.5223 18.8853 88.7459 19.1485C88.9762 19.4116 89.2524 19.6155 89.5747 19.7602C89.9036 19.9049 90.2753 19.9773 90.6897 19.9773C91.2028 19.9773 91.6797 19.8786 92.1204 19.6813C92.5677 19.4774 92.9525 19.1715 93.2748 18.7637L94.6562 20.2634C94.4325 20.5857 94.1267 20.8949 93.7386 21.1909C93.3571 21.4869 92.8966 21.7303 92.3572 21.9211C91.8178 22.1052 91.2028 22.1973 90.5121 22.1973ZM96.5112 6.84444H99.3528V19.553L99.0667 22H96.5112V6.84444ZM106.112 16.5535V16.7607C106.112 17.5566 106.026 18.2868 105.855 18.9511C105.691 19.6155 105.434 20.1911 105.086 20.6778C104.737 21.158 104.303 21.533 103.783 21.8027C103.27 22.0658 102.665 22.1973 101.968 22.1973C101.316 22.1973 100.751 22.0658 100.27 21.8027C99.7969 21.5395 99.3989 21.1679 99.0766 20.6877C98.7542 20.2075 98.4944 19.6451 98.2971 19.0005C98.0997 18.3558 97.9517 17.652 97.8531 16.8889V16.4351C97.9517 15.672 98.0997 14.9682 98.2971 14.3236C98.4944 13.6789 98.7542 13.1165 99.0766 12.6363C99.3989 12.1561 99.7969 11.7845 100.27 11.5214C100.744 11.2582 101.303 11.1267 101.948 11.1267C102.652 11.1267 103.263 11.2615 103.783 11.5312C104.309 11.7943 104.743 12.1693 105.086 12.656C105.434 13.1362 105.691 13.7085 105.855 14.3729C106.026 15.0307 106.112 15.7575 106.112 16.5535ZM103.27 16.7607V16.5535C103.27 16.1193 103.237 15.7115 103.171 15.33C103.112 14.9419 103.007 14.6031 102.856 14.3137C102.704 14.0177 102.497 13.7842 102.234 13.6131C101.977 13.4421 101.645 13.3566 101.237 13.3566C100.849 13.3566 100.52 13.4224 100.251 13.5539C99.981 13.6855 99.7574 13.8697 99.5798 14.1065C99.4088 14.3433 99.2805 14.6261 99.195 14.955C99.1095 15.2774 99.0568 15.6326 99.0371 16.0207V17.3132C99.0568 17.8329 99.1423 18.2933 99.2936 18.6946C99.4515 19.0893 99.6883 19.4017 100.004 19.6319C100.326 19.8556 100.744 19.9674 101.257 19.9674C101.658 19.9674 101.991 19.8885 102.254 19.7306C102.517 19.5727 102.721 19.3491 102.865 19.0597C103.017 18.7702 103.122 18.4315 103.181 18.0434C103.24 17.6487 103.27 17.2211 103.27 16.7607Z" fill="#081131"/>
</svg>
